<?xml version="1.0" encoding="UTF-8"?>
<svg width="20px" height="20px" viewBox="0 0 20 20" version="1.1" xmlns="http://www.w3.org/2000/svg" xmlns:xlink="http://www.w3.org/1999/xlink">
    <!-- Generator: Sketch 47.1 (45422) - http://www.bohemiancoding.com/sketch -->
    <title>vin</title>
    <desc>Created with Sketch.</desc>
    <defs></defs>
    <g id="报告2" stroke="none" stroke-width="1" fill="none" fill-rule="evenodd">
        <g transform="translate(-30.000000, -390.000000)" id="vin" fill="#C2BBB8">
            <path d="M40,401.722703 L37.8271266,395.752783 C37.6382341,395.233805 37.0643917,394.966218 36.5454138,395.15511 L36.5454138,395.15511 L36.5454138,395.15511 C36.0264359,395.344003 35.7588488,395.917845 35.9477413,396.436823 L39.0259226,404.894057 C39.1778566,405.311492 39.5788391,405.566286 40,405.551715 C40.4211609,405.566286 40.8221434,405.311492 40.9740774,404.894057 L44.0522587,396.436823 C44.2411512,395.917845 43.9735641,395.344003 43.4545862,395.15511 C42.9356083,394.966218 42.3617659,395.233805 42.1728734,395.752783 L40,401.722703 Z M40,410 C34.4771525,410 30,405.522847 30,400 C30,394.477153 34.4771525,390 40,390 C45.5228475,390 50,394.477153 50,400 C50,405.522847 45.5228475,410 40,410 Z"></path>
        </g>
    </g>
</svg>