<svg id="图层_1" data-name="图层 1" xmlns="http://www.w3.org/2000/svg" xmlns:xlink="http://www.w3.org/1999/xlink" viewBox="0 0 114 114"><defs><style>.cls-1{filter:url(#filter-2);}.cls-2{fill:#fff;stroke:#e6e6e6;}.cls-3{fill:#60554f;}.cls-4{fill:none;}</style><filter id="filter-2" x="-16.8" y="-8.37" width="133.7" height="133.7" name="filter-2"><feMorphology result="shadowSpreadOuter1" operator="dilate" radius="0.5" in="SourceAlpha"/><feOffset result="shadowOffsetOuter1" dy="8" in="shadowSpreadOuter1"/><feGaussianBlur result="shadowBlurOuter1" stdDeviation="4" in="shadowOffsetOuter1"/><feComposite result="shadowBlurOuter1" operator="out" in="shadowBlurOuter1" in2="SourceAlpha"/><feColorMatrix values="0 0 0 0 0 0 0 0 0 0 0 0 0 0 0 0 0 0 0.2 0" in="shadowBlurOuter1"/></filter></defs><title>返回顶部@2x</title><g id="报告确认"><g id="报告2"><g id="返回顶部"><g id="Group-3"><g id="Oval-48"><g class="cls-1"><circle id="path-1" cx="56" cy="51" r="49"/></g><circle id="path-1-2" data-name="path-1" class="cls-2" cx="56" cy="51" r="49"/></g><path id="Combined-Shape" class="cls-3" d="M56,30.67H56a2,2,0,0,1,1.4.58h0a2,2,0,0,1,.31.4L71.52,45.43a2,2,0,0,1-2.79,2.79h0L58,37.49v31.2h0a2,2,0,0,1-4,0V37.44L43.27,48.22h0a2,2,0,0,1-2.79-2.79L54.24,31.66a2,2,0,0,1,.31-.4h0A2,2,0,0,1,56,30.67Z" transform="translate(0 0.33)"/></g><rect id="Rectangle-12" class="cls-4" width="114" height="114"/></g></g></g></svg>