<?xml version="1.0" encoding="UTF-8"?>
<svg width="20px" height="20px" viewBox="0 0 20 20" version="1.1" xmlns="http://www.w3.org/2000/svg" xmlns:xlink="http://www.w3.org/1999/xlink">
    <!-- Generator: Sketch 47.1 (45422) - http://www.bohemiancoding.com/sketch -->
    <title>时间</title>
    <desc>Created with Sketch.</desc>
    <defs></defs>
    <g id="报告2" stroke="none" stroke-width="1" fill="none" fill-rule="evenodd">
        <g transform="translate(-405.000000, -390.000000)" id="时间" fill="#C2BBB8">
            <path d="M416,400.004791 L416,394.977669 C416,394.425384 415.552285,393.977669 415,393.977669 C414.447715,393.977669 414,394.425384 414,394.977669 L414,400.977669 C414,400.982196 414.00003,400.986717 414.00009,400.99123 C414.00003,400.995743 414,401.000264 414,401.004791 L414,401.004791 C414,401.557076 414.447715,402.004791 415,402.004791 L415,402.004791 L418.943373,402.004791 C419.495658,402.004791 419.943373,401.557076 419.943373,401.004791 C419.943373,400.452507 419.495658,400.004791 418.943373,400.004791 L416,400.004791 Z M415,410 C409.477153,410 405,405.522847 405,400 C405,394.477153 409.477153,390 415,390 C420.522847,390 425,394.477153 425,400 C425,405.522847 420.522847,410 415,410 Z"></path>
        </g>
    </g>
</svg>