<?xml version="1.0" encoding="UTF-8"?>
<svg width="24px" height="25px" viewBox="0 0 24 25" version="1.1" xmlns="http://www.w3.org/2000/svg" xmlns:xlink="http://www.w3.org/1999/xlink">
    <!-- Generator: Sketch 47.1 (45422) - http://www.bohemiancoding.com/sketch -->
    <title>Combined Shape</title>
    <desc>Created with Sketch.</desc>
    <defs></defs>
    <g id="报告确认" stroke="none" stroke-width="1" fill="none" fill-rule="evenodd">
        <g id="报告2" transform="translate(-30.000000, -3419.000000)" fill="#D8D8D8">
            <path d="M37.9712824,3431.75168 C37.581211,3431.22047 37.3508173,3430.56475 37.3508173,3429.85524 C37.3508173,3429.16809 37.566917,3428.5314 37.9348783,3428.0094 L33.61159,3423.40249 L32.7937323,3424.22016 C32.6978547,3424.31601 32.5625016,3424.37808 32.4158448,3424.37808 C32.2184089,3424.37808 32.0435801,3424.27092 31.9533254,3424.113 L30.0863212,3420.91565 C30.0412228,3420.83672 30.0129928,3420.74086 30.0129928,3420.64495 C30.0129928,3420.49838 30.0750756,3420.363 30.1709532,3420.26715 L31.236968,3419.20138 C31.3329036,3419.10553 31.4682567,3419.04346 31.6149135,3419.04346 C31.7164139,3419.04346 31.8066686,3419.07168 31.8856198,3419.11677 L35.0837224,3420.97204 C35.2416827,3421.06789 35.3488638,3421.23706 35.3488638,3421.43445 C35.3488638,3421.58107 35.2867811,3421.71639 35.1909035,3421.81225 L34.3618002,3422.64121 L38.8642136,3427.1311 C39.3561237,3426.82447 39.9371203,3426.64731 40.5595044,3426.64731 C41.338846,3426.64731 42.0532932,3426.92509 42.6091937,3427.38702 L42.6159539,3427.3807 L42.7061389,3427.47089 C42.7898413,3427.54626 42.8695545,3427.62597 42.9449234,3427.70967 L45.6504535,3430.4152 L45.6482252,3430.41753 L52.8115668,3437.5792 C53.3868903,3438.16001 53.7479093,3438.95513 53.7479093,3439.84043 C53.7479093,3441.60546 52.3151946,3443.03784 50.5497488,3443.03784 C49.6642435,3443.03784 48.8689349,3442.68252 48.2879887,3442.10171 L41.2825495,3435.09797 L38.4985019,3432.31402 C38.3541921,3432.19299 38.2206936,3432.05949 38.0996639,3431.91518 L37.953168,3431.76869 L37.9712824,3431.75168 Z M37.6282977,3432.07368 L40.9777762,3435.42316 L34.5704817,3442.25964 C34.0910359,3442.73891 33.4254577,3443.03784 32.6865511,3443.03784 C31.2144188,3443.03784 30.0186736,3441.84231 30.0186736,3440.37053 C30.0186736,3439.63742 30.3119871,3438.97205 30.7970558,3438.48704 L37.6282977,3432.07368 Z M42.9415835,3427.07647 L44.6950143,3425.43822 C44.5145048,3424.93635 44.4130044,3424.40062 44.4130044,3423.83668 C44.4130044,3421.18635 46.5620185,3419.03784 49.2129697,3419.03784 C49.9518762,3419.03784 50.6513072,3419.21263 51.2774097,3419.51149 L49.1453221,3421.64308 C48.8576314,3421.93633 48.6771218,3422.33673 48.6771218,3422.77654 C48.6771218,3423.66189 49.3934792,3424.37808 50.2790425,3424.37808 C50.7246355,3424.37808 51.1250722,3424.19761 51.4127629,3423.90999 L53.5391698,3421.78408 C53.8381061,3422.40998 54.0129928,3423.10925 54.0129928,3423.84798 C54.0129928,3426.49837 51.8639788,3428.64682 49.2129697,3428.64682 C48.6489498,3428.64682 48.113102,3428.54534 47.611107,3428.36488 L45.9583463,3430.09323 L42.9415835,3427.07647 Z M44.4093352,3433.71571 C44.0590438,3434.066 44.0634487,3434.62956 44.4137569,3434.97987 L49.7603358,3440.32645 C50.1103799,3440.67649 50.6766262,3440.67874 51.0244923,3440.33087 C51.3747837,3439.98058 51.3703788,3439.41702 51.0200706,3439.06671 L45.6734917,3433.72013 C45.3234476,3433.37009 44.7572014,3433.36785 44.4093352,3433.71571 Z M33.4031111,3440.65644 C33.7510588,3440.3085 33.7511248,3439.74443 33.4032587,3439.39656 C33.0553925,3439.04869 32.491324,3439.04876 32.1433763,3439.39671 C31.7954287,3439.74466 31.7953626,3440.30872 32.1432288,3440.65659 C32.4910949,3441.00446 33.0551635,3441.00439 33.4031111,3440.65644 Z" id="Combined-Shape"></path>
        </g>
    </g>
</svg>